<?xml version="1.0" encoding="UTF-8"?>
<svg width="91px" height="60px" viewBox="0 0 91 60" version="1.1" xmlns="http://www.w3.org/2000/svg" xmlns:xlink="http://www.w3.org/1999/xlink">
    <title>B17C85CA-DD95-49C9-B5AD-02E86DFF38AE</title>
    <g id="Fragrance-App---Desktop" stroke="none" stroke-width="1" fill="none" fill-rule="evenodd">
        <g id="App---Landing-Page---Desktop" transform="translate(-1065.000000, -838.000000)">
            <g id="Perfume-set" transform="translate(1065.000000, 838.000000)">
                <g id="2780---Perfume-I" transform="translate(30.000000, 25.000000)">
                    <g id="_276994552" transform="translate(5.571429, 3.000000)">
                        <path d="M11.4906514,3.24214857 C11.4906514,3.44323749 11.7089819,3.60627886 11.9782811,3.60627886 C12.2475813,3.60627886 12.4659109,3.44323703 12.4659109,3.24214857 L12.4659109,2.21728457 C12.4659109,2.01619566 12.2475803,1.85315429 11.9782811,1.85315429 C11.708981,1.85315429 11.4906514,2.01619611 11.4906514,2.21728457 L11.4906514,3.24214857 Z" id="_276995032" fill="#8C8D8D" fill-rule="nonzero"></path>
                        <path d="M12.7511314,8.83053714 L7.31355429,8.83053714 C7.04425417,8.83053714 6.82592457,8.61220663 6.82592457,8.34290743 L6.82592457,5.18192457 C6.82592457,4.91262446 7.04425509,4.69429486 7.31355429,4.69429486 L12.7511314,4.69429486 C13.0204315,4.69429486 13.2387611,4.91262537 13.2387611,5.18192457 L13.2387611,8.34290743 C13.2387611,8.61220754 13.0204306,8.83053714 12.7511314,8.83053714 Z" id="_276995368" fill="#636364" fill-rule="nonzero"></path>
                        <path d="M11.5153371,5.66962286 L8.54938057,5.66962286 C8.28008046,5.66962286 8.06175086,5.45129234 8.06175086,5.18199314 L8.06175086,1.38857143 C8.06175086,1.11927131 8.28008137,0.900941714 8.54938057,0.900941714 L11.5153371,0.900941714 C11.7846373,0.900941714 12.0029669,1.11927223 12.0029669,1.38857143 L12.0029669,5.18199314 C12.0029669,5.45129326 11.7846363,5.66962286 11.5153371,5.66962286 Z" id="_276995296" fill="#2F2F2F" fill-rule="nonzero"></path>
                        <path d="M18.0367543,19.3441371 C17.0822446,21.2382903 15.7530011,22.9968 14.1872869,24.1805257 C14.1007538,24.2589061 13.9859639,24.3066544 13.8600338,24.3066544 L6.20467383,24.3066544 C6.10287863,24.3066544 6.00018331,24.2750681 5.91242651,24.2093582 L6.20467383,23.8190231 L5.91323611,24.2075945 C4.33195154,23.0236677 2.9897344,21.2527054 2.02795154,19.3440974 C1.00028069,17.3047008 0.399695543,15.0957454 0.399695543,13.2670688 C0.399695543,12.1234391 0.633342171,11.1218985 1.05945783,10.2556494 C1.5096896,9.34030309 2.16972069,8.58634194 2.99211154,7.98363109 C2.99997655,7.97722391 3.00805755,7.97099666 3.01642651,7.96500343 L3.01702044,7.96584932 L3.01711043,7.96577733 L3.01667848,7.96516541 L3.02927693,7.95613053 C3.11152653,7.89288664 3.21450984,7.85523446 3.32627578,7.85523446 L16.7380701,7.85523446 C16.8365898,7.85523446 16.9360815,7.88466132 17.0222904,7.94639339 L17.0221824,7.94655537 C17.0263039,7.94934502 17.0304074,7.95218865 17.0344749,7.95512231 L17.033413,7.95659813 C17.8731525,8.56355585 18.5456188,9.32332727 19.0013216,10.2459284 C19.4299022,11.1136541 19.6649879,12.1183444 19.6649879,13.2670667 C19.6649879,15.0957296 19.0644028,17.3046804 18.0367319,19.3440953 L18.0367543,19.3441371 Z" id="_276995680" fill="#727272" fill-rule="nonzero"></path>
                        <path d="M3.39122286,9.46569143 C3.11799909,9.76206034 2.88172343,10.0901074 2.70016457,10.4592229 C2.35206994,11.1668754 2.21408,11.93936 2.21408,12.7240777 C2.21408,14.4873554 2.87504914,16.4794514 3.66138514,18.0399634 C4.40454857,19.5146971 5.45504,21.0085669 6.74661486,22.0722331 C7.66493257,22.0722331 11.2727086,22.2252859 11.6167863,21.864773 L7.41863314,21.2992827 C6.09464686,20.2356165 5.01776914,18.7417467 4.25595886,17.267013 C3.44987429,15.7065193 2.77231543,13.7144187 2.77231543,11.9511273 C2.77231543,11.1664096 2.91375954,10.393925 3.27060114,9.68627246 C3.30852242,9.61105966 3.34880137,9.53757486 3.39122194,9.46569143 L3.39122286,9.46569143 Z" id="_276994312" fill="#959595"></path>
                        <path d="M6.51561143,4.69430857 C6.24631131,4.69430857 6.02798171,4.91263909 6.02798171,5.18193829 C6.02798171,5.4512384 6.24631223,5.669568 6.51561143,5.669568 L13.54912,5.669568 C13.8184201,5.669568 14.0367497,5.45123749 14.0367497,5.18193829 C14.0367497,4.91263817 13.8184192,4.69430857 13.54912,4.69430857 L6.51561143,4.69430857 Z" id="_276994240" fill="#5B5B5B" fill-rule="nonzero"></path>
                    </g>
                    <rect id="Rectangle" x="0" y="0" width="31.2075886" height="31.2075886"></rect>
                </g>
                <g id="2782---Perfume-II">
                    <path d="M31.8966472,8.66061516 C31.5838793,8.66061516 31.3303032,9.37313353 31.3303032,10.2519708 C31.3303032,11.1308047 31.5838784,11.8433265 31.8966472,11.8433265 L32.9909738,11.8433265 C33.3037417,11.8433265 33.5573178,11.1308082 33.5573178,10.2519708 C33.5573178,9.37313703 33.3037426,8.66061516 32.9909738,8.66061516 L31.8966472,8.66061516 Z" id="Path" fill="#757575" fill-rule="nonzero"></path>
                    <path d="M32.8932945,18.4635569 L26.8150583,18.4635569 C26.3765353,18.4635569 26.0210335,18.0458327 26.0210335,17.5305918 L26.0210335,13.378828 C26.0210335,12.8635854 26.3765353,12.445863 26.8150583,12.445863 L32.8932945,12.445863 C33.3318175,12.445863 33.6873192,12.8635872 33.6873192,13.378828 L33.6873192,17.5305918 C33.6873192,18.0458344 33.3318175,18.4635569 32.8932945,18.4635569 Z" id="Path" fill="#575758" fill-rule="nonzero"></path>
                    <path d="M21.4374927,21.8128863 L25.501102,16.9365481 L26.2153767,17.530577 L25.4986574,16.9333111 C25.6830542,16.7120353 25.9481991,16.597609 26.2153767,16.597609 L26.2153767,16.597609 L26.2203697,16.597609 L33.4929644,16.597609 C33.8119309,16.597609 34.0934673,16.7577294 34.261714,17.001904 L38.3263204,21.8794405 L38.3293506,21.8769268 C38.5478372,22.139111 38.5980772,22.4857282 38.4921221,22.7857518 C37.8556699,25.0344574 37.261195,27.6211134 37.1402241,30.06809 C37.0230439,32.4392096 37.3463145,34.6795186 38.5158772,36.3226265 C40.0659413,38.5002241 40.4574282,41.1571921 40.2490638,43.8909443 C40.0490337,46.5146411 39.2906818,49.2150959 38.4945623,51.603437 L37.6126235,51.3118807 L38.4976935,51.6069154 C38.3652238,52.0044268 37.991025,52.2533533 37.5929967,52.2450596 L22.0956789,52.2450596 C21.6520944,52.2450596 21.2808212,51.9352134 21.1861279,51.5203125 C20.400127,49.1525253 19.6569588,46.4842746 19.4592387,43.8909451 C19.250876,41.157193 19.6423611,38.500225 21.1924253,36.3226274 C22.361988,34.6795195 22.685262,32.4392104 22.5680783,30.0680909 C22.4461113,27.6003766 21.8425095,24.9905603 21.1999996,22.7286215 L21.1982435,22.729138 C21.1023091,22.3914395 21.2053025,22.0443395 21.4374598,21.8128698 L21.4374927,21.8128863 Z" id="Path" fill="#727272" fill-rule="nonzero"></path>
                    <path d="M24.0662974,22.5357726 C24.65647,24.783481 25.115519,27.1086035 25.2295277,29.4157085 C25.3716735,32.2918513 24.9669997,35.305863 23.2581166,37.7066327 C22.1430612,39.2731574 21.9732945,41.2899184 22.1152741,43.1523411 C22.2503948,44.9245802 22.8073032,47.7402507 23.3156939,49.5015743 L31.9367405,49.5015743 C26.4951341,49.1629111 26.0900729,48.9718688 24.5425889,48.9757601 C24.0341983,47.2144364 23.4772915,44.3987659 23.3421691,42.6265268 C23.2001956,40.7641041 23.3699578,38.7473431 24.4850117,37.1808184 C26.1938921,34.7800487 26.5985685,31.7660283 26.4564227,28.8898942 C26.3424105,26.5827805 25.8833641,24.2576668 25.2931924,22.0099583 L26.7285219,19.3410778 L24.0662886,22.5357717 L24.0662974,22.5357726 Z" id="Path" fill="#888888"></path>
                    <path d="M31.8020117,14.3119242 L27.9064023,14.3119242 C27.3911598,14.3119242 26.9734373,13.8942 26.9734373,13.3789592 L26.9734373,8.39650146 C26.9734373,7.88125889 27.3911615,7.46353644 27.9064023,7.46353644 L31.8020117,7.46353644 C32.3172542,7.46353644 32.7349767,7.88126064 32.7349767,8.39650146 L32.7349767,13.3789592 C32.7349767,13.8942017 32.3172525,14.3119242 31.8020117,14.3119242 Z" id="Path" fill="#2F2F2F" fill-rule="nonzero"></path>
                    <path d="M25.2351603,12.4458892 C24.7199178,12.4458892 24.3021953,12.8636134 24.3021953,13.3788542 C24.3021953,13.8940968 24.7199195,14.3118192 25.2351603,14.3118192 L34.4732362,14.3118192 C34.9884787,14.3118192 35.4062012,13.894095 35.4062012,13.3788542 C35.4062012,12.8636117 34.988477,12.4458892 34.4732362,12.4458892 L25.2351603,12.4458892 L25.2351603,12.4458892 Z" id="Path" fill="#4D4D4D" fill-rule="nonzero"></path>
                    <rect id="Rectangle" x="0" y="0" width="59.7083965" height="59.7083965"></rect>
                    <rect id="Rectangle" x="0" y="0" width="59.7083965" height="59.7083965"></rect>
                </g>
                <g id="2782---Perfume-II" transform="translate(31.000000, 0.000000)">
                    <path d="M31.8966472,8.66061516 C31.5838793,8.66061516 31.3303032,9.37313353 31.3303032,10.2519708 C31.3303032,11.1308047 31.5838784,11.8433265 31.8966472,11.8433265 L32.9909738,11.8433265 C33.3037417,11.8433265 33.5573178,11.1308082 33.5573178,10.2519708 C33.5573178,9.37313703 33.3037426,8.66061516 32.9909738,8.66061516 L31.8966472,8.66061516 Z" id="Path" fill="#757575" fill-rule="nonzero"></path>
                    <path d="M32.8932945,18.4635569 L26.8150583,18.4635569 C26.3765353,18.4635569 26.0210335,18.0458327 26.0210335,17.5305918 L26.0210335,13.378828 C26.0210335,12.8635854 26.3765353,12.445863 26.8150583,12.445863 L32.8932945,12.445863 C33.3318175,12.445863 33.6873192,12.8635872 33.6873192,13.378828 L33.6873192,17.5305918 C33.6873192,18.0458344 33.3318175,18.4635569 32.8932945,18.4635569 Z" id="Path" fill="#575758" fill-rule="nonzero"></path>
                    <path d="M21.4374927,21.8128863 L25.501102,16.9365481 L26.2153767,17.530577 L25.4986574,16.9333111 C25.6830542,16.7120353 25.9481991,16.597609 26.2153767,16.597609 L26.2153767,16.597609 L26.2203697,16.597609 L33.4929644,16.597609 C33.8119309,16.597609 34.0934673,16.7577294 34.261714,17.001904 L38.3263204,21.8794405 L38.3293506,21.8769268 C38.5478372,22.139111 38.5980772,22.4857282 38.4921221,22.7857518 C37.8556699,25.0344574 37.261195,27.6211134 37.1402241,30.06809 C37.0230439,32.4392096 37.3463145,34.6795186 38.5158772,36.3226265 C40.0659413,38.5002241 40.4574282,41.1571921 40.2490638,43.8909443 C40.0490337,46.5146411 39.2906818,49.2150959 38.4945623,51.603437 L37.6126235,51.3118807 L38.4976935,51.6069154 C38.3652238,52.0044268 37.991025,52.2533533 37.5929967,52.2450596 L22.0956789,52.2450596 C21.6520944,52.2450596 21.2808212,51.9352134 21.1861279,51.5203125 C20.400127,49.1525253 19.6569588,46.4842746 19.4592387,43.8909451 C19.250876,41.157193 19.6423611,38.500225 21.1924253,36.3226274 C22.361988,34.6795195 22.685262,32.4392104 22.5680783,30.0680909 C22.4461113,27.6003766 21.8425095,24.9905603 21.1999996,22.7286215 L21.1982435,22.729138 C21.1023091,22.3914395 21.2053025,22.0443395 21.4374598,21.8128698 L21.4374927,21.8128863 Z" id="Path" fill="#727272" fill-rule="nonzero"></path>
                    <path d="M24.0662974,22.5357726 C24.65647,24.783481 25.115519,27.1086035 25.2295277,29.4157085 C25.3716735,32.2918513 24.9669997,35.305863 23.2581166,37.7066327 C22.1430612,39.2731574 21.9732945,41.2899184 22.1152741,43.1523411 C22.2503948,44.9245802 22.8073032,47.7402507 23.3156939,49.5015743 L31.9367405,49.5015743 C26.4951341,49.1629111 26.0900729,48.9718688 24.5425889,48.9757601 C24.0341983,47.2144364 23.4772915,44.3987659 23.3421691,42.6265268 C23.2001956,40.7641041 23.3699578,38.7473431 24.4850117,37.1808184 C26.1938921,34.7800487 26.5985685,31.7660283 26.4564227,28.8898942 C26.3424105,26.5827805 25.8833641,24.2576668 25.2931924,22.0099583 L26.7285219,19.3410778 L24.0662886,22.5357717 L24.0662974,22.5357726 Z" id="Path" fill="#888888"></path>
                    <path d="M31.8020117,14.3119242 L27.9064023,14.3119242 C27.3911598,14.3119242 26.9734373,13.8942 26.9734373,13.3789592 L26.9734373,8.39650146 C26.9734373,7.88125889 27.3911615,7.46353644 27.9064023,7.46353644 L31.8020117,7.46353644 C32.3172542,7.46353644 32.7349767,7.88126064 32.7349767,8.39650146 L32.7349767,13.3789592 C32.7349767,13.8942017 32.3172525,14.3119242 31.8020117,14.3119242 Z" id="Path" fill="#2F2F2F" fill-rule="nonzero"></path>
                    <path d="M25.2351603,12.4458892 C24.7199178,12.4458892 24.3021953,12.8636134 24.3021953,13.3788542 C24.3021953,13.8940968 24.7199195,14.3118192 25.2351603,14.3118192 L34.4732362,14.3118192 C34.9884787,14.3118192 35.4062012,13.894095 35.4062012,13.3788542 C35.4062012,12.8636117 34.988477,12.4458892 34.4732362,12.4458892 L25.2351603,12.4458892 L25.2351603,12.4458892 Z" id="Path" fill="#4D4D4D" fill-rule="nonzero"></path>
                    <rect id="Rectangle" x="0" y="0" width="59.7083965" height="59.7083965"></rect>
                    <rect id="Rectangle" x="0" y="0" width="59.7083965" height="59.7083965"></rect>
                </g>
            </g>
        </g>
    </g>
</svg>