<?xml version="1.0" encoding="UTF-8"?>
<svg width="40px" height="40px" viewBox="0 0 40 40" version="1.1" xmlns="http://www.w3.org/2000/svg" xmlns:xlink="http://www.w3.org/1999/xlink">
    <title>118130BC-04C9-4982-BF83-83D9440BF2FE</title>
    <g id="Fragrance-App---Desktop" stroke="none" stroke-width="1" fill="none" fill-rule="evenodd">
        <g id="App---Landing-Page---Desktop" transform="translate(-311.000000, -858.000000)" fill-rule="nonzero">
            <g id="question" transform="translate(311.000000, 858.000000)">
                <path d="M33.1796265,10.0415039 L32.3022461,10.0415039 L32.3022461,16.8618774 C32.3022461,21.914978 28.1912231,26.0260009 23.1381226,26.0260009 L10.0415039,26.0260009 L10.0415039,26.9036866 C10.0415039,30.6643677 13.1011962,33.7237548 16.8618774,33.7237548 L30.8724976,33.7237548 L38.078003,39.7283936 C38.2925415,39.9072266 38.5592652,40 38.8284302,40 C39.4726562,40 40,39.4772339 40,38.828125 L40,16.8618774 C40,13.095398 36.9528198,10.0415039 33.1796265,10.0415039 L33.1796265,10.0415039 Z" id="Path" fill="#727272"></path>
                <path d="M29.9584961,16.8618774 L29.9584961,6.82037352 C29.9584961,3.04718016 26.9049072,0 23.1381226,0 L6.82037352,0 C3.04718016,0 -2.22044605e-15,3.05358891 -2.22044605e-15,6.82037352 L-2.22044605e-15,28.7866211 C-2.22044605e-15,29.4354248 0.52734375,29.9584961 1.17156984,29.9584961 C1.44073484,29.9584961 1.70745852,29.8657227 1.92199703,29.6865845 L9.12750242,23.6822509 L23.1381226,23.6822509 C26.8988037,23.6822509 29.9584961,20.6228637 29.9584961,16.8618774 Z M14.979248,18.6614991 C14.3322754,18.6614991 13.807373,18.1365967 13.807373,17.4896241 C13.807373,16.8426514 14.3322754,16.3177491 14.979248,16.3177491 C15.6259155,16.3177491 16.151123,16.8426514 16.151123,17.4896241 C16.151123,18.1365967 15.6259155,18.6614991 14.979248,18.6614991 Z M16.151123,13.4786987 L16.151123,13.7240601 C16.151123,14.3710327 15.6262207,14.8959351 14.979248,14.8959351 C14.3319702,14.8959351 13.807373,14.3710327 13.807373,13.7240601 L13.807373,12.468872 C13.807373,11.8215942 14.3319702,11.296997 14.979248,11.296997 C16.0632324,11.296997 16.9451905,10.4147339 16.9451905,9.33074953 C16.9451905,8.24646 16.0632324,7.36450195 14.979248,7.36450195 C14.453125,7.36450195 13.9596558,7.56896969 13.588562,7.94006344 C13.2174683,8.31115719 13.0130005,8.80462648 13.0130005,9.32922359 C13.0130005,9.97650148 12.4884033,10.5020141 11.8411255,10.5020141 C11.1938477,10.5020141 10.6692505,9.97772219 10.6692505,9.33074953 L10.6692505,9.32922359 C10.6692505,8.17871094 11.1175537,7.09655766 11.9311523,6.28295898 C12.7450562,5.46905516 13.8269043,5.02075195 14.9777222,5.02075195 C17.3556519,5.02075195 19.2889405,6.9543457 19.2889405,9.33074953 C19.2889405,11.3012695 17.9598999,12.9672241 16.151123,13.4786987 Z" id="Shape" fill="#2D2D2D"></path>
            </g>
        </g>
    </g>
</svg>