<?xml version="1.0" encoding="UTF-8"?>
<svg width="84px" height="59px" viewBox="0 0 84 59" version="1.1" xmlns="http://www.w3.org/2000/svg" xmlns:xlink="http://www.w3.org/1999/xlink">
    <title>7EDE2FC6-3789-4A83-82A5-3A5967A78B00</title>
    <g id="Fragrance-App---Desktop" stroke="none" stroke-width="1" fill="none" fill-rule="evenodd">
        <g id="App---Landing-Page---Desktop" transform="translate(-678.000000, -839.000000)">
            <g id="Group-3" transform="translate(678.000000, 839.000000)">
                <g id="2780---Perfume-I-Copy" transform="translate(32.000000, 24.000000)">
                    <g id="_276994552" transform="translate(5.571429, 3.000000)">
                        <path d="M11.4906514,3.24214857 C11.4906514,3.44323749 11.7089819,3.60627886 11.9782811,3.60627886 C12.2475813,3.60627886 12.4659109,3.44323703 12.4659109,3.24214857 L12.4659109,2.21728457 C12.4659109,2.01619566 12.2475803,1.85315429 11.9782811,1.85315429 C11.708981,1.85315429 11.4906514,2.01619611 11.4906514,2.21728457 L11.4906514,3.24214857 Z" id="_276995032" fill="#8C8D8D" fill-rule="nonzero"></path>
                        <path d="M12.7511314,8.83053714 L7.31355429,8.83053714 C7.04425417,8.83053714 6.82592457,8.61220663 6.82592457,8.34290743 L6.82592457,5.18192457 C6.82592457,4.91262446 7.04425509,4.69429486 7.31355429,4.69429486 L12.7511314,4.69429486 C13.0204315,4.69429486 13.2387611,4.91262537 13.2387611,5.18192457 L13.2387611,8.34290743 C13.2387611,8.61220754 13.0204306,8.83053714 12.7511314,8.83053714 Z" id="_276995368" fill="#636364" fill-rule="nonzero"></path>
                        <path d="M11.5153371,5.66962286 L8.54938057,5.66962286 C8.28008046,5.66962286 8.06175086,5.45129234 8.06175086,5.18199314 L8.06175086,1.38857143 C8.06175086,1.11927131 8.28008137,0.900941714 8.54938057,0.900941714 L11.5153371,0.900941714 C11.7846373,0.900941714 12.0029669,1.11927223 12.0029669,1.38857143 L12.0029669,5.18199314 C12.0029669,5.45129326 11.7846363,5.66962286 11.5153371,5.66962286 Z" id="_276995296" fill="#2F2F2F" fill-rule="nonzero"></path>
                        <path d="M18.0367543,19.3441371 C17.0822446,21.2382903 15.7530011,22.9968 14.1872869,24.1805257 C14.1007538,24.2589061 13.9859639,24.3066544 13.8600338,24.3066544 L6.20467383,24.3066544 C6.10287863,24.3066544 6.00018331,24.2750681 5.91242651,24.2093582 L6.20467383,23.8190231 L5.91323611,24.2075945 C4.33195154,23.0236677 2.9897344,21.2527054 2.02795154,19.3440974 C1.00028069,17.3047008 0.399695543,15.0957454 0.399695543,13.2670688 C0.399695543,12.1234391 0.633342171,11.1218985 1.05945783,10.2556494 C1.5096896,9.34030309 2.16972069,8.58634194 2.99211154,7.98363109 C2.99997655,7.97722391 3.00805755,7.97099666 3.01642651,7.96500343 L3.01702044,7.96584932 L3.01711043,7.96577733 L3.01667848,7.96516541 L3.02927693,7.95613053 C3.11152653,7.89288664 3.21450984,7.85523446 3.32627578,7.85523446 L16.7380701,7.85523446 C16.8365898,7.85523446 16.9360815,7.88466132 17.0222904,7.94639339 L17.0221824,7.94655537 C17.0263039,7.94934502 17.0304074,7.95218865 17.0344749,7.95512231 L17.033413,7.95659813 C17.8731525,8.56355585 18.5456188,9.32332727 19.0013216,10.2459284 C19.4299022,11.1136541 19.6649879,12.1183444 19.6649879,13.2670667 C19.6649879,15.0957296 19.0644028,17.3046804 18.0367319,19.3440953 L18.0367543,19.3441371 Z" id="_276995680" fill="#727272" fill-rule="nonzero"></path>
                        <path d="M3.39122286,9.46569143 C3.11799909,9.76206034 2.88172343,10.0901074 2.70016457,10.4592229 C2.35206994,11.1668754 2.21408,11.93936 2.21408,12.7240777 C2.21408,14.4873554 2.87504914,16.4794514 3.66138514,18.0399634 C4.40454857,19.5146971 5.45504,21.0085669 6.74661486,22.0722331 C7.66493257,22.0722331 11.2727086,22.2252859 11.6167863,21.864773 L7.41863314,21.2992827 C6.09464686,20.2356165 5.01776914,18.7417467 4.25595886,17.267013 C3.44987429,15.7065193 2.77231543,13.7144187 2.77231543,11.9511273 C2.77231543,11.1664096 2.91375954,10.393925 3.27060114,9.68627246 C3.30852242,9.61105966 3.34880137,9.53757486 3.39122194,9.46569143 L3.39122286,9.46569143 Z" id="_276994312" fill="#959595"></path>
                        <path d="M6.51561143,4.69430857 C6.24631131,4.69430857 6.02798171,4.91263909 6.02798171,5.18193829 C6.02798171,5.4512384 6.24631223,5.669568 6.51561143,5.669568 L13.54912,5.669568 C13.8184201,5.669568 14.0367497,5.45123749 14.0367497,5.18193829 C14.0367497,4.91263817 13.8184192,4.69430857 13.54912,4.69430857 L6.51561143,4.69430857 Z" id="_276994240" fill="#5B5B5B" fill-rule="nonzero"></path>
                    </g>
                    <rect id="Rectangle" x="0" y="0" width="31.2075886" height="31.2075886"></rect>
                </g>
                <g id="2780---Perfume-I-Copy" transform="translate(42.000000, 24.000000)">
                    <g id="_276994552" transform="translate(5.571429, 3.000000)">
                        <path d="M11.4906514,3.24214857 C11.4906514,3.44323749 11.7089819,3.60627886 11.9782811,3.60627886 C12.2475813,3.60627886 12.4659109,3.44323703 12.4659109,3.24214857 L12.4659109,2.21728457 C12.4659109,2.01619566 12.2475803,1.85315429 11.9782811,1.85315429 C11.708981,1.85315429 11.4906514,2.01619611 11.4906514,2.21728457 L11.4906514,3.24214857 Z" id="_276995032" fill="#8C8D8D" fill-rule="nonzero"></path>
                        <path d="M12.7511314,8.83053714 L7.31355429,8.83053714 C7.04425417,8.83053714 6.82592457,8.61220663 6.82592457,8.34290743 L6.82592457,5.18192457 C6.82592457,4.91262446 7.04425509,4.69429486 7.31355429,4.69429486 L12.7511314,4.69429486 C13.0204315,4.69429486 13.2387611,4.91262537 13.2387611,5.18192457 L13.2387611,8.34290743 C13.2387611,8.61220754 13.0204306,8.83053714 12.7511314,8.83053714 Z" id="_276995368" fill="#636364" fill-rule="nonzero"></path>
                        <path d="M11.5153371,5.66962286 L8.54938057,5.66962286 C8.28008046,5.66962286 8.06175086,5.45129234 8.06175086,5.18199314 L8.06175086,1.38857143 C8.06175086,1.11927131 8.28008137,0.900941714 8.54938057,0.900941714 L11.5153371,0.900941714 C11.7846373,0.900941714 12.0029669,1.11927223 12.0029669,1.38857143 L12.0029669,5.18199314 C12.0029669,5.45129326 11.7846363,5.66962286 11.5153371,5.66962286 Z" id="_276995296" fill="#2F2F2F" fill-rule="nonzero"></path>
                        <path d="M18.0367543,19.3441371 C17.0822446,21.2382903 15.7530011,22.9968 14.1872869,24.1805257 C14.1007538,24.2589061 13.9859639,24.3066544 13.8600338,24.3066544 L6.20467383,24.3066544 C6.10287863,24.3066544 6.00018331,24.2750681 5.91242651,24.2093582 L6.20467383,23.8190231 L5.91323611,24.2075945 C4.33195154,23.0236677 2.9897344,21.2527054 2.02795154,19.3440974 C1.00028069,17.3047008 0.399695543,15.0957454 0.399695543,13.2670688 C0.399695543,12.1234391 0.633342171,11.1218985 1.05945783,10.2556494 C1.5096896,9.34030309 2.16972069,8.58634194 2.99211154,7.98363109 C2.99997655,7.97722391 3.00805755,7.97099666 3.01642651,7.96500343 L3.01702044,7.96584932 L3.01711043,7.96577733 L3.01667848,7.96516541 L3.02927693,7.95613053 C3.11152653,7.89288664 3.21450984,7.85523446 3.32627578,7.85523446 L16.7380701,7.85523446 C16.8365898,7.85523446 16.9360815,7.88466132 17.0222904,7.94639339 L17.0221824,7.94655537 C17.0263039,7.94934502 17.0304074,7.95218865 17.0344749,7.95512231 L17.033413,7.95659813 C17.8731525,8.56355585 18.5456188,9.32332727 19.0013216,10.2459284 C19.4299022,11.1136541 19.6649879,12.1183444 19.6649879,13.2670667 C19.6649879,15.0957296 19.0644028,17.3046804 18.0367319,19.3440953 L18.0367543,19.3441371 Z" id="_276995680" fill="#727272" fill-rule="nonzero"></path>
                        <path d="M3.39122286,9.46569143 C3.11799909,9.76206034 2.88172343,10.0901074 2.70016457,10.4592229 C2.35206994,11.1668754 2.21408,11.93936 2.21408,12.7240777 C2.21408,14.4873554 2.87504914,16.4794514 3.66138514,18.0399634 C4.40454857,19.5146971 5.45504,21.0085669 6.74661486,22.0722331 C7.66493257,22.0722331 11.2727086,22.2252859 11.6167863,21.864773 L7.41863314,21.2992827 C6.09464686,20.2356165 5.01776914,18.7417467 4.25595886,17.267013 C3.44987429,15.7065193 2.77231543,13.7144187 2.77231543,11.9511273 C2.77231543,11.1664096 2.91375954,10.393925 3.27060114,9.68627246 C3.30852242,9.61105966 3.34880137,9.53757486 3.39122194,9.46569143 L3.39122286,9.46569143 Z" id="_276994312" fill="#959595"></path>
                        <path d="M6.51561143,4.69430857 C6.24631131,4.69430857 6.02798171,4.91263909 6.02798171,5.18193829 C6.02798171,5.4512384 6.24631223,5.669568 6.51561143,5.669568 L13.54912,5.669568 C13.8184201,5.669568 14.0367497,5.45123749 14.0367497,5.18193829 C14.0367497,4.91263817 13.8184192,4.69430857 13.54912,4.69430857 L6.51561143,4.69430857 Z" id="_276994240" fill="#5B5B5B" fill-rule="nonzero"></path>
                    </g>
                    <rect id="Rectangle" x="0" y="0" width="31.2075886" height="31.2075886"></rect>
                </g>
                <g id="2780---Perfume-I-Copy" transform="translate(52.000000, 24.000000)">
                    <g id="_276994552" transform="translate(5.571429, 3.000000)">
                        <path d="M11.4906514,3.24214857 C11.4906514,3.44323749 11.7089819,3.60627886 11.9782811,3.60627886 C12.2475813,3.60627886 12.4659109,3.44323703 12.4659109,3.24214857 L12.4659109,2.21728457 C12.4659109,2.01619566 12.2475803,1.85315429 11.9782811,1.85315429 C11.708981,1.85315429 11.4906514,2.01619611 11.4906514,2.21728457 L11.4906514,3.24214857 Z" id="_276995032" fill="#8C8D8D" fill-rule="nonzero"></path>
                        <path d="M12.7511314,8.83053714 L7.31355429,8.83053714 C7.04425417,8.83053714 6.82592457,8.61220663 6.82592457,8.34290743 L6.82592457,5.18192457 C6.82592457,4.91262446 7.04425509,4.69429486 7.31355429,4.69429486 L12.7511314,4.69429486 C13.0204315,4.69429486 13.2387611,4.91262537 13.2387611,5.18192457 L13.2387611,8.34290743 C13.2387611,8.61220754 13.0204306,8.83053714 12.7511314,8.83053714 Z" id="_276995368" fill="#636364" fill-rule="nonzero"></path>
                        <path d="M11.5153371,5.66962286 L8.54938057,5.66962286 C8.28008046,5.66962286 8.06175086,5.45129234 8.06175086,5.18199314 L8.06175086,1.38857143 C8.06175086,1.11927131 8.28008137,0.900941714 8.54938057,0.900941714 L11.5153371,0.900941714 C11.7846373,0.900941714 12.0029669,1.11927223 12.0029669,1.38857143 L12.0029669,5.18199314 C12.0029669,5.45129326 11.7846363,5.66962286 11.5153371,5.66962286 Z" id="_276995296" fill="#2F2F2F" fill-rule="nonzero"></path>
                        <path d="M18.0367543,19.3441371 C17.0822446,21.2382903 15.7530011,22.9968 14.1872869,24.1805257 C14.1007538,24.2589061 13.9859639,24.3066544 13.8600338,24.3066544 L6.20467383,24.3066544 C6.10287863,24.3066544 6.00018331,24.2750681 5.91242651,24.2093582 L6.20467383,23.8190231 L5.91323611,24.2075945 C4.33195154,23.0236677 2.9897344,21.2527054 2.02795154,19.3440974 C1.00028069,17.3047008 0.399695543,15.0957454 0.399695543,13.2670688 C0.399695543,12.1234391 0.633342171,11.1218985 1.05945783,10.2556494 C1.5096896,9.34030309 2.16972069,8.58634194 2.99211154,7.98363109 C2.99997655,7.97722391 3.00805755,7.97099666 3.01642651,7.96500343 L3.01702044,7.96584932 L3.01711043,7.96577733 L3.01667848,7.96516541 L3.02927693,7.95613053 C3.11152653,7.89288664 3.21450984,7.85523446 3.32627578,7.85523446 L16.7380701,7.85523446 C16.8365898,7.85523446 16.9360815,7.88466132 17.0222904,7.94639339 L17.0221824,7.94655537 C17.0263039,7.94934502 17.0304074,7.95218865 17.0344749,7.95512231 L17.033413,7.95659813 C17.8731525,8.56355585 18.5456188,9.32332727 19.0013216,10.2459284 C19.4299022,11.1136541 19.6649879,12.1183444 19.6649879,13.2670667 C19.6649879,15.0957296 19.0644028,17.3046804 18.0367319,19.3440953 L18.0367543,19.3441371 Z" id="_276995680" fill="#727272" fill-rule="nonzero"></path>
                        <path d="M3.39122286,9.46569143 C3.11799909,9.76206034 2.88172343,10.0901074 2.70016457,10.4592229 C2.35206994,11.1668754 2.21408,11.93936 2.21408,12.7240777 C2.21408,14.4873554 2.87504914,16.4794514 3.66138514,18.0399634 C4.40454857,19.5146971 5.45504,21.0085669 6.74661486,22.0722331 C7.66493257,22.0722331 11.2727086,22.2252859 11.6167863,21.864773 L7.41863314,21.2992827 C6.09464686,20.2356165 5.01776914,18.7417467 4.25595886,17.267013 C3.44987429,15.7065193 2.77231543,13.7144187 2.77231543,11.9511273 C2.77231543,11.1664096 2.91375954,10.393925 3.27060114,9.68627246 C3.30852242,9.61105966 3.34880137,9.53757486 3.39122194,9.46569143 L3.39122286,9.46569143 Z" id="_276994312" fill="#959595"></path>
                        <path d="M6.51561143,4.69430857 C6.24631131,4.69430857 6.02798171,4.91263909 6.02798171,5.18193829 C6.02798171,5.4512384 6.24631223,5.669568 6.51561143,5.669568 L13.54912,5.669568 C13.8184201,5.669568 14.0367497,5.45123749 14.0367497,5.18193829 C14.0367497,4.91263817 13.8184192,4.69430857 13.54912,4.69430857 L6.51561143,4.69430857 Z" id="_276994240" fill="#5B5B5B" fill-rule="nonzero"></path>
                    </g>
                    <rect id="Rectangle" x="0" y="0" width="31.2075886" height="31.2075886"></rect>
                </g>
                <g id="3402---Magnifying-Glass">
                    <g id="_374330168" transform="translate(7.000000, 7.000000)">
                        <path d="M40.2354286,15.0596857 C40.2354286,12.3130143 39.1876229,9.56630857 37.09208,7.4708 C34.9965714,5.37529143 32.2498657,4.32748571 29.5031943,4.32748571 C26.7565229,4.32748571 24.0098514,5.37529143 21.9143086,7.4708 C19.8187657,9.56630857 18.77096,12.3130143 18.77096,15.0596857 C18.77096,17.8063571 19.8187657,20.5530629 21.9143086,22.6486057 C24.0098514,24.7441486 26.7565229,25.7919543 29.5031943,25.7919543 C32.2498657,25.7919543 34.9965714,24.7441486 37.09208,22.6486057 C39.1876229,20.5530629 40.2354286,17.8063571 40.2354286,15.0596857 Z" id="_374330912" fill="#CFCFD0" opacity="0.5"></path>
                        <path d="M20.1902857,25.6654571 C20.5472823,25.3084606 20.5472823,24.7295857 20.1902857,24.3725857 C19.8332891,24.0155891 19.2544143,24.0155891 18.8974143,24.3725857 L13.2515429,30.0184914 C12.8945463,30.375488 12.8945463,30.9543629 13.2515429,31.3113629 C13.6085394,31.6683594 14.1874143,31.6683594 14.5444143,31.3113629 L20.1902857,25.6654571 Z" id="_374330744" fill="#848484" fill-rule="nonzero"></path>
                        <path d="M39.9584857,4.60434286 C42.8457371,7.49153429 44.2893543,11.2756486 44.2893543,15.0596857 C44.2893543,18.8437057 42.8457114,22.62782 39.9584857,25.5150286 C37.0712943,28.40228 33.28718,29.8458971 29.5031429,29.8458971 C25.7191229,29.8458971 21.9350429,28.4022543 19.0478,25.5150286 C16.1605743,22.6278029 14.7169314,18.8436886 14.7169314,15.0596857 C14.7169314,11.2756657 16.16054,7.49155143 19.0478,4.60434286 C21.9350514,1.71715143 25.7191057,0.273508571 29.5031429,0.273508571 C33.2871629,0.273508571 37.0712771,1.71715143 39.9584857,4.60434286 Z M40.2354037,15.0596857 C40.2354037,12.3130143 39.187598,9.56630857 37.0920551,7.4708 C34.9965466,5.37529143 32.2498409,4.32748571 29.5031694,4.32748571 C26.756498,4.32748571 24.0098266,5.37529143 21.9142837,7.4708 C19.8187409,9.56630857 18.7709351,12.3130143 18.7709351,15.0596857 C18.7709351,17.8063571 19.8187409,20.5530629 21.9142837,22.6486057 C24.0098266,24.7441486 26.756498,25.7919543 29.5031694,25.7919543 C32.2498409,25.7919543 34.9965466,24.7441486 37.0920551,22.6486057 C39.187598,20.5530629 40.2354037,17.8063571 40.2354037,15.0596857 Z" id="_374329880" fill="#717171" fill-rule="nonzero"></path>
                        <path d="M20.4033714,15.0596857 C20.4033714,15.3121383 20.6080734,15.5168394 20.8605251,15.5168394 C21.1129777,15.5168394 21.3176789,15.3121374 21.3176789,15.0596857 C21.3176789,12.7992886 22.2338789,10.7528429 23.7151503,9.27160571 C25.1963874,7.79033429 27.2428331,6.87413429 29.5032303,6.87413429 C29.7556829,6.87413429 29.960384,6.66943229 29.960384,6.41698057 C29.960384,6.164528 29.755682,5.95982686 29.5032303,5.95982686 C26.990456,5.95982686 24.7154789,6.97837829 23.0687189,8.62517257 C21.4219246,10.2719326 20.4033714,12.5469011 20.4033714,15.059684 L20.4033714,15.0596857 Z" id="_374330600" fill="#DADADA" fill-rule="nonzero"></path>
                        <g id="Group" transform="translate(0.000000, 26.214286)">
                            <g>
                                <path d="M1.93888571,17.1876857 L1.06355429,16.3123543 C0.504420286,15.7532203 0.224803143,15.0172629 0.224803143,14.2820743 C0.224803143,13.5468549 0.504420286,12.8109257 1.06352086,12.25176 C3.26158657,8.43683143 8.28798371,3.69517714 12.0336637,1.42784571 L12.817376,0.644133429 L12.8224379,0.63893658 C13.1794679,0.28190658 13.7584122,0.28190658 14.1154379,0.63893658 L14.1153704,0.639004072 L17.7533332,4.27696693 L17.7585301,4.28202879 C18.1155601,4.63905879 18.1155601,5.21800308 17.7585301,5.57502879 L17.7584626,5.5749613 L16.9696212,6.36380273 C14.7632583,10.227657 9.87240973,15.1095742 5.9994783,17.187717 C5.4403443,17.746851 4.70438687,18.0264347 3.9691983,18.0264347 C3.23394545,18.0264347 2.49801545,17.7468176 1.93888402,17.1876836 L1.93888571,17.1876857 Z" id="_374330528" fill="#2D2D2D" fill-rule="nonzero"></path>
                                <path d="M13.7702549,3.18812571 L15.0631263,4.48099714 L16.9610206,6.37889143 C16.9639227,6.37386331 16.9667911,6.36883517 16.9696595,6.36380709 L17.7585686,5.57503337 C18.1155986,5.21800337 18.1155986,4.63905909 17.7585686,4.28203337 L17.7533718,4.27697151 L16.5102489,3.03384865 L15.2173775,1.74097722 L14.1154775,0.638940077 C13.7584475,0.281910077 13.1795032,0.281910077 12.8224775,0.638940077 L12.8174156,0.644136926 L12.0337033,1.42784921 C12.0287764,1.43081884 12.0238495,1.43382221 12.0189227,1.43679187 L13.7702627,3.18813187 L13.7702549,3.18812571 Z" id="_374330048" fill="#A1A1A1"></path>
                            </g>
                            <g transform="translate(0.500000, 2.071429)">
                                <path d="M1.43888571,15.1162571 L0.993678,14.6710494 L15.3563066,0.308420857 L17.2534294,2.20554371 L17.2586263,2.21057183 C17.6156563,2.56763612 17.6156563,3.14658041 17.2586263,3.50357183 L17.2585588,3.50353809 L16.4696839,4.29237952 C14.2633211,8.1562338 9.3724725,13.0381509 5.49954107,15.1162938 C4.94040707,15.6754278 4.20447536,15.9549781 3.46929536,15.9549781 C2.7340425,15.9549781 1.9981125,15.6753267 1.43894679,15.1162269 L1.43888571,15.1162571 Z" id="_374330144" fill="#282929" fill-rule="nonzero"></path>
                                <path d="M15.3562543,0.308445714 L13.9090971,1.75560286 L14.5630903,2.409596 L16.4609846,4.30749029 C16.4639205,4.30242842 16.4667888,4.29743403 16.4696235,4.29240594 L17.258566,3.50359794 C17.615596,3.14660137 17.615596,2.56765794 17.258566,2.21059794 L17.2533692,2.20556982 L16.010212,0.96241268 L15.3562523,0.308452966 L15.3562543,0.308445714 Z" id="_374330312" fill="#878787"></path>
                            </g>
                        </g>
                    </g>
                    <rect id="Rectangle" x="0" y="0" width="58.5142286" height="58.5142286"></rect>
                </g>
            </g>
        </g>
    </g>
</svg>