<?xml version="1.0" encoding="UTF-8"?>
<svg width="60px" height="60px" viewBox="0 0 60 60" version="1.1" xmlns="http://www.w3.org/2000/svg" xmlns:xlink="http://www.w3.org/1999/xlink">
    <title>551A1DDB-AC13-420E-A08F-7F95F79036E5</title>
    <g id="Fragrance-App---Desktop" stroke="none" stroke-width="1" fill="none" fill-rule="evenodd">
        <g id="App---4.3---Desktop" transform="translate(-442.000000, -322.000000)">
            <g id="Group" transform="translate(430.000000, 310.000000)">
                <g id="2782---Perfume-II" transform="translate(12.000000, 12.000000)">
                    <path d="M31.8966472,8.66061516 C31.5838793,8.66061516 31.3303032,9.37313353 31.3303032,10.2519708 C31.3303032,11.1308047 31.5838784,11.8433265 31.8966472,11.8433265 L32.9909738,11.8433265 C33.3037417,11.8433265 33.5573178,11.1308082 33.5573178,10.2519708 C33.5573178,9.37313703 33.3037426,8.66061516 32.9909738,8.66061516 L31.8966472,8.66061516 Z" id="Path" fill="#757575" fill-rule="nonzero"></path>
                    <path d="M32.8932945,18.4635569 L26.8150583,18.4635569 C26.3765353,18.4635569 26.0210335,18.0458327 26.0210335,17.5305918 L26.0210335,13.378828 C26.0210335,12.8635854 26.3765353,12.445863 26.8150583,12.445863 L32.8932945,12.445863 C33.3318175,12.445863 33.6873192,12.8635872 33.6873192,13.378828 L33.6873192,17.5305918 C33.6873192,18.0458344 33.3318175,18.4635569 32.8932945,18.4635569 Z" id="Path" fill="#575758" fill-rule="nonzero"></path>
                    <path d="M21.4374927,21.8128863 L25.501102,16.9365481 L26.2153767,17.530577 L25.4986574,16.9333111 C25.6830542,16.7120353 25.9481991,16.597609 26.2153767,16.597609 L26.2153767,16.597609 L26.2203697,16.597609 L33.4929644,16.597609 C33.8119309,16.597609 34.0934673,16.7577294 34.261714,17.001904 L38.3263204,21.8794405 L38.3293506,21.8769268 C38.5478372,22.139111 38.5980772,22.4857282 38.4921221,22.7857518 C37.8556699,25.0344574 37.261195,27.6211134 37.1402241,30.06809 C37.0230439,32.4392096 37.3463145,34.6795186 38.5158772,36.3226265 C40.0659413,38.5002241 40.4574282,41.1571921 40.2490638,43.8909443 C40.0490337,46.5146411 39.2906818,49.2150959 38.4945623,51.603437 L37.6126235,51.3118807 L38.4976935,51.6069154 C38.3652238,52.0044268 37.991025,52.2533533 37.5929967,52.2450596 L22.0956789,52.2450596 C21.6520944,52.2450596 21.2808212,51.9352134 21.1861279,51.5203125 C20.400127,49.1525253 19.6569588,46.4842746 19.4592387,43.8909451 C19.250876,41.157193 19.6423611,38.500225 21.1924253,36.3226274 C22.361988,34.6795195 22.685262,32.4392104 22.5680783,30.0680909 C22.4461113,27.6003766 21.8425095,24.9905603 21.1999996,22.7286215 L21.1982435,22.729138 C21.1023091,22.3914395 21.2053025,22.0443395 21.4374598,21.8128698 L21.4374927,21.8128863 Z" id="Path" fill="#727272" fill-rule="nonzero"></path>
                    <path d="M24.0662974,22.5357726 C24.65647,24.783481 25.115519,27.1086035 25.2295277,29.4157085 C25.3716735,32.2918513 24.9669997,35.305863 23.2581166,37.7066327 C22.1430612,39.2731574 21.9732945,41.2899184 22.1152741,43.1523411 C22.2503948,44.9245802 22.8073032,47.7402507 23.3156939,49.5015743 L31.9367405,49.5015743 C26.4951341,49.1629111 26.0900729,48.9718688 24.5425889,48.9757601 C24.0341983,47.2144364 23.4772915,44.3987659 23.3421691,42.6265268 C23.2001956,40.7641041 23.3699578,38.7473431 24.4850117,37.1808184 C26.1938921,34.7800487 26.5985685,31.7660283 26.4564227,28.8898942 C26.3424105,26.5827805 25.8833641,24.2576668 25.2931924,22.0099583 L26.7285219,19.3410778 L24.0662886,22.5357717 L24.0662974,22.5357726 Z" id="Path" fill="#888888"></path>
                    <path d="M31.8020117,14.3119242 L27.9064023,14.3119242 C27.3911598,14.3119242 26.9734373,13.8942 26.9734373,13.3789592 L26.9734373,8.39650146 C26.9734373,7.88125889 27.3911615,7.46353644 27.9064023,7.46353644 L31.8020117,7.46353644 C32.3172542,7.46353644 32.7349767,7.88126064 32.7349767,8.39650146 L32.7349767,13.3789592 C32.7349767,13.8942017 32.3172525,14.3119242 31.8020117,14.3119242 Z" id="Path" fill="#2F2F2F" fill-rule="nonzero"></path>
                    <path d="M25.2351603,12.4458892 C24.7199178,12.4458892 24.3021953,12.8636134 24.3021953,13.3788542 C24.3021953,13.8940968 24.7199195,14.3118192 25.2351603,14.3118192 L34.4732362,14.3118192 C34.9884787,14.3118192 35.4062012,13.894095 35.4062012,13.3788542 C35.4062012,12.8636117 34.988477,12.4458892 34.4732362,12.4458892 L25.2351603,12.4458892 L25.2351603,12.4458892 Z" id="Path" fill="#4D4D4D" fill-rule="nonzero"></path>
                    <rect id="Rectangle" x="0" y="0" width="59.7083965" height="59.7083965"></rect>
                    <rect id="Rectangle" x="0" y="0" width="59.7083965" height="59.7083965"></rect>
                </g>
            </g>
        </g>
    </g>
</svg>