<?xml version="1.0" encoding="UTF-8"?>
<svg width="93px" height="22px" viewBox="0 0 93 22" version="1.1" xmlns="http://www.w3.org/2000/svg" xmlns:xlink="http://www.w3.org/1999/xlink">
    <title>BBDABDB0-2DB8-4B3B-8068-C470C093C382</title>
    <g id="Fragrance-App---Desktop" stroke="none" stroke-width="1" fill="none" fill-rule="evenodd">
        <g id="App---Landing-Page---Desktop" transform="translate(-739.000000, -1870.000000)">
            <g id="Footer" transform="translate(0.000000, 1661.000000)">
                <g id="logo-TrustintoSales" transform="translate(740.000000, 210.000000)">
                    <path d="M1.84153005,0.0907103825 C2.07028311,0.0674272554 2.30012424,0.0564824397 2.53005464,0.0579234973 L14.1606557,0.0579234973 C14.7431694,0.0579234973 15.3333333,0.050273224 15.9234973,0.0579234973 C16.9147541,0.0743169399 17.8251366,1.02513661 17.8010929,2.01748634 L17.8010929,15.9431694 C17.8010929,15.9431694 17.6612022,17.3289617 15.9814208,17.473224 L11.7759563,17.473224 L9.53005464,19.8174863 C9.32646922,19.9812228 9.03637231,19.9812228 8.83278689,19.8174863 L6.53770492,17.4863388 L1.83825137,17.4863388 C1.83825137,17.4863388 0.207650273,17.4622951 0.0513661202,15.6174863 L0.0513661202,1.91912568 C0.0513661202,1.32896175 0.420765027,0.779234973 0.878688525,0.443715847 C1.16183945,0.24353101 1.49287475,0.121749233 1.83825137,0.0907103825" id="Path" fill="#F5F6F6" fill-rule="nonzero"></path>
                    <path d="M1.84153005,0.0907103825 C2.07028311,0.0674272554 2.30012424,0.0564824397 2.53005464,0.0579234973 L14.1606557,0.0579234973 C14.7431694,0.0579234973 15.3333333,0.050273224 15.9234973,0.0579234973 C16.9147541,0.0743169399 17.8251366,1.02513661 17.8010929,2.01748634 L17.8010929,15.9431694 C17.8010929,15.9431694 17.6612022,17.3289617 15.9814208,17.473224 L11.7759563,17.473224 L9.53005464,19.8174863 C9.32646922,19.9812228 9.03637231,19.9812228 8.83278689,19.8174863 L6.53770492,17.4863388 L1.83825137,17.4863388 C1.83825137,17.4863388 0.207650273,17.4622951 0.0513661202,15.6174863 L0.0513661202,1.91912568 C0.0513661202,1.32896175 0.420765027,0.779234973 0.878688525,0.443715847 C1.16183945,0.24353101 1.49287475,0.121749233 1.83825137,0.0907103825 L1.84153005,0.0907103825 Z" id="Path" stroke="#505150" stroke-width="0.5"></path>
                    <path d="M16.3661202,6.72240437 L11.1693989,6.22185792 L9.10382514,2.01748634 L7.07103825,6.32896175 L1.83278689,6.68087432 L5.93114754,10.0994536 L4.71912568,15.1912568 L9.09617486,12.6262295 L13.620765,15.1912568 L12.3420765,10.1344262 L16.3661202,6.72240437 Z M12.2021858,6.86120219 C9.92349727,8.89398907 8.89071038,11.4928962 8.89071038,11.4928962 C8.78142077,11.9923497 8.49726776,11.8120219 8.49726776,11.8120219 C8.23497268,11.1650273 7.77595628,10.5989071 7.30928962,10.0743169 C7.09071038,9.8284153 6.39125683,9.36939891 6.76284153,8.99234973 C7.21420765,8.52568306 8.27103825,9.68087432 8.46775956,9.46010929 C10.136612,7.57486339 11.4885246,6.57486339 11.4885246,6.57486339 C12.4557377,6.35628415 12.2010929,6.86120219 12.2010929,6.86120219" id="Shape" fill="#0C7AB7" fill-rule="nonzero"></path>
                    <polygon id="Path" fill="#505050" fill-rule="nonzero" points="30.4808743 3.45136612 30.4808743 5.36174863 27.2513661 5.36174863 27.2513661 14.2142077 24.9803279 14.2142077 24.9803279 5.36174863 21.7344262 5.36174863 21.7344262 3.45136612"></polygon>
                    <path d="M35.2513661,6.07431694 C35.2754098,6.07431694 35.3420765,6.08306011 35.431694,6.08306011 L35.431694,8.21420765 C35.3005464,8.19781421 35.1857923,8.18907104 35.0797814,8.18142077 C34.9737705,8.17377049 34.8907104,8.1726776 34.8338798,8.1726776 C33.9967213,8.1726776 33.431694,8.44371585 33.1442623,8.99234973 C32.9803279,9.29617486 32.9071038,9.7715847 32.9071038,10.4131148 L32.9071038,14.2163934 L30.8087432,14.2163934 L30.8087432,6.25464481 L32.8,6.25464481 L32.8,7.64043716 C33.1191257,7.10710383 33.4065574,6.74644809 33.6437158,6.54754098 C34.0371585,6.21967213 34.5453552,6.0557377 35.168306,6.0557377 C35.1951574,6.06333822 35.222564,6.06881953 35.2502732,6.07213115" id="Path" fill="#505050" fill-rule="nonzero"></path>
                    <path d="M38.7355191,6.25464481 L38.7355191,11.0502732 C38.7355191,11.5005464 38.7923497,11.8448087 38.8994536,12.0743169 C39.0874317,12.4765027 39.4557377,12.6808743 40.0142077,12.6808743 C40.726776,12.6808743 41.2098361,12.3945355 41.473224,11.820765 C41.6120219,11.5092896 41.6775956,11.0994536 41.6775956,10.5825137 L41.6775956,6.25464481 L43.7923497,6.25464481 L43.7923497,14.2142077 L41.7617486,14.2142077 L41.7617486,13.0907104 L41.6142077,13.3092896 C41.5393637,13.4301713 41.4452207,13.5379743 41.3355191,13.6284153 C41.0635222,13.8880673 40.743028,14.0915793 40.3923497,14.2273224 C40.0462954,14.3416091 39.683518,14.3970232 39.3191257,14.3912568 C38.1387978,14.3912568 37.3442623,13.9650273 36.9420765,13.1202186 C36.7125683,12.6531876 36.5978142,11.964663 36.5978142,11.0546448 L36.5978142,6.26338798 L38.7377049,6.26338798 L38.7355191,6.25464481 Z" id="Path" fill="#505050" fill-rule="nonzero"></path>
                    <path d="M47.431694,11.673224 C47.4721311,12.0415301 47.5704918,12.3038251 47.7180328,12.4601093 C47.9803279,12.7387978 48.4557377,12.8775956 49.1606557,12.8775956 C49.4979912,12.8933567 49.834457,12.8316713 50.1442623,12.6972678 C50.3666121,12.6079016 50.5105898,12.3904127 50.5060109,12.1508197 C50.5149168,11.9318978 50.4011334,11.7262447 50.210929,11.6174863 C50.0142077,11.495082 49.284153,11.2896175 48.0306011,10.9868852 C47.1198543,10.768306 46.48051,10.4896175 46.1125683,10.1508197 C45.7431694,9.82295082 45.5540984,9.33879781 45.5540984,8.71584699 C45.5488583,7.98729435 45.8671034,7.29396041 46.4229508,6.82295082 C47.0054645,6.29836066 47.8163934,6.0273224 48.8743169,6.0273224 C49.8743169,6.0273224 50.6852459,6.22404372 51.3169399,6.62622951 C51.9486339,7.0284153 52.3092896,7.70819672 52.3989071,8.68306011 L50.3081967,8.68306011 C50.2902676,8.45342512 50.2114197,8.23272656 50.0797814,8.04371585 C49.8502732,7.76502732 49.4557377,7.61748634 48.9071038,7.61748634 C48.4480874,7.61748634 48.1278689,7.69180328 47.9311475,7.83060109 C47.7554472,7.93659274 47.6471158,8.12596586 47.6448087,8.33114754 C47.6358784,8.54997835 47.7584663,8.75300111 47.9562842,8.84699454 C48.1617486,8.95628415 48.8907104,9.15081967 50.136612,9.42076503 C50.9639344,9.61748634 51.5956284,9.91256831 52.0054645,10.3060109 C52.4106907,10.6972516 52.6337964,11.2401555 52.620765,11.8032787 C52.6391741,12.5499756 52.3126303,13.2635343 51.7355191,13.7377049 C51.1453552,14.2371585 50.2349727,14.4830601 48.9967213,14.4830601 C47.7584699,14.4830601 46.810929,14.220765 46.2098361,13.6885246 C45.6220078,13.1856943 45.2910226,12.4454909 45.3081967,11.6721311 L47.431694,11.673224 Z" id="Path" fill="#505050" fill-rule="nonzero"></path>
                    <path d="M53.3333333,7.81202186 L53.3333333,6.32896175 L54.4480874,6.32896175 L54.4480874,4.10710383 L56.515847,4.10710383 L56.515847,6.32896175 L57.810929,6.32896175 L57.810929,7.81202186 L56.515847,7.81202186 L56.515847,12.0218579 C56.515847,12.3497268 56.557377,12.5540984 56.6393443,12.6284153 C56.7213115,12.7027322 56.9748634,12.7508197 57.4043716,12.7508197 L57.6087432,12.7508197 C57.6830601,12.7508197 57.7486339,12.7431694 57.8142077,12.7431694 L57.8142077,14.3005464 L56.8229508,14.3333333 C55.8393443,14.3661202 55.1584699,14.1934426 54.7978142,13.8251366 C54.5606557,13.5868852 54.4459016,13.2185792 54.4459016,12.7180328 L54.4459016,7.81202186 L53.3333333,7.81202186 Z" id="Path" fill="#505050" fill-rule="nonzero"></path>
                    <path d="M60.9486339,10.8939891 C61.0218579,11.3857923 61.1530055,11.7551913 61.3584699,12.0010929 C61.7358834,12.4440801 62.3752277,12.6652095 63.2765027,12.6644809 C63.7225483,12.6780053 64.1678851,12.6200783 64.5956284,12.4928962 C65.2349727,12.2743169 65.5628415,11.8535519 65.5628415,11.2469945 C65.571057,10.9038575 65.387843,10.5846019 65.0874317,10.4185792 C64.7759563,10.2306011 64.2765027,10.0579235 63.5868852,9.91912568 L62.4174863,9.66448087 C61.2699454,9.41092896 60.4830601,9.13989071 60.0491803,8.83715847 C59.3191257,8.33661202 58.9562842,7.56612022 58.9562842,6.50928962 C58.9345325,5.58890709 59.3253802,4.70699434 60.0218579,4.10491803 C60.7355191,3.46557377 61.7704918,3.14644809 63.1617486,3.14644809 C64.3092896,3.14644809 65.2928962,3.44918033 66.1125683,4.04808743 C66.9322404,4.64699454 67.3497268,5.52349727 67.3912568,6.66229508 L65.2185792,6.66229508 C65.1781421,6.01530055 64.8907104,5.55628415 64.3442623,5.2852459 C63.9230575,5.09258843 63.4629277,5.00018838 63,5.01530055 C62.4010929,5.01530055 61.926776,5.13005464 61.579235,5.36721311 C61.2406157,5.57460221 61.0375608,5.94617612 61.0459016,6.3431694 C61.0331034,6.70926721 61.2399445,7.04769535 61.5715847,7.20327869 C61.7901639,7.32677596 62.2754098,7.48196721 63.0054645,7.64043716 L64.8983607,8.07759563 C65.726776,8.27431694 66.3497268,8.53661202 66.768306,8.8568306 C67.4153005,9.36502732 67.7344262,10.0939891 67.7344262,11.0535519 C67.7498795,12.0034937 67.3265015,12.9075065 66.5868852,13.5038251 C65.8218579,14.1519126 64.7519126,14.4797814 63.3584699,14.4797814 C61.9377049,14.4797814 60.8174863,14.1595628 60.0054645,13.5202186 C59.1934426,12.8808743 58.7846995,12.0218579 58.7846995,10.8939891 L60.9486339,10.8939891 Z" id="Path" fill="#0C7AB7" fill-rule="nonzero"></path>
                    <path d="M75.8743169,7.10382514 C76.5224044,7.79234973 76.8502732,8.8010929 76.8502732,10.1289617 C76.8502732,11.5300546 76.5300546,12.5956284 75.8994536,13.3333333 C75.2909943,14.0573821 74.3858851,14.4648824 73.4404372,14.4404372 C72.8010929,14.4404372 72.2677596,14.284153 71.8502732,13.9650273 C71.581757,13.7481504 71.3515941,13.4876933 71.1693989,13.1945355 L71.1693989,17.347541 L69.1038251,17.347541 L69.1038251,6.25464481 L71.1038251,6.25464481 L71.1038251,7.43169399 C71.3012711,7.12344709 71.5444949,6.84705644 71.8251366,6.61202186 C72.3051165,6.25389818 72.8908877,6.06620525 73.4896175,6.07868852 C74.3927687,6.07252607 75.2573737,6.44420318 75.8743169,7.10382514 M74.2677596,8.60437158 C73.9814208,8.12896175 73.5224044,7.89945355 72.8907104,7.89945355 C72.1256831,7.89945355 71.6043716,8.26010929 71.3169399,8.9726776 C71.1565638,9.43616143 71.0824805,9.92511121 71.0983607,10.4153005 C71.0983607,11.3420765 71.3442623,11.989071 71.8448087,12.3661202 C72.1484829,12.5887678 72.5175751,12.7041091 72.8939891,12.6939891 C73.484153,12.6939891 73.926776,12.4754098 74.2382514,12.0218579 C74.5497268,11.568306 74.6972678,10.9814208 74.6972678,10.2349727 C74.7095704,9.66238065 74.5619664,9.09770086 74.2710383,8.60437158" id="Shape" fill="#0C7AB7" fill-rule="nonzero"></path>
                    <path d="M84.9803279,13.2469945 C84.3092896,14.0743169 83.284153,14.4928962 81.9147541,14.4928962 C80.5453552,14.4928962 79.5224044,14.0743169 78.8546448,13.2469945 C78.1868852,12.4196721 77.8459016,11.4185792 77.8459016,10.2546448 C77.8237689,9.17288094 78.1806113,8.11743163 78.8546448,7.27103825 C79.526776,6.4273224 80.5508197,6.00874317 81.9147541,6.00874317 C83.2786885,6.00874317 84.3092896,6.4273224 84.9803279,7.27103825 C85.6543614,8.11743163 86.0112038,9.17288094 85.989071,10.2546448 C85.989071,11.4185792 85.6535519,12.410929 84.9803279,13.2469945 M83.3081967,12.0907104 C83.6360656,11.6535519 83.8,11.03898 83.8,10.2469945 C83.8,9.45500911 83.6360656,8.84007286 83.3081967,8.40218579 C82.9803279,7.97595628 82.5136612,7.75519126 81.8994536,7.75519126 C81.2852459,7.75519126 80.8174863,7.97377049 80.4896175,8.40218579 C80.1617486,8.83060109 79.9978142,9.44371585 79.9978142,10.2469945 C79.9978142,11.0502732 80.1617486,11.6568306 80.4896175,12.0907104 C80.8174863,12.5245902 81.2918033,12.7387978 81.8994536,12.7387978 C82.5071038,12.7387978 82.9803279,12.5256831 83.3081967,12.0907104" id="Shape" fill="#0C7AB7" fill-rule="nonzero"></path>
                    <path d="M86.6612022,7.81202186 L86.6612022,6.32896175 L87.7726776,6.32896175 L87.7726776,4.10710383 L89.8382514,4.10710383 L89.8382514,6.32896175 L91.1333333,6.32896175 L91.1333333,7.81202186 L89.8415301,7.81202186 L89.8415301,12.0218579 C89.8415301,12.3497268 89.8830601,12.5540984 89.9650273,12.6284153 C90.0469945,12.7027322 90.3005464,12.7508197 90.7300546,12.7508197 L90.9344262,12.7508197 C91.0087432,12.7508197 91.0743169,12.7431694 91.1398907,12.7431694 L91.1398907,14.3005464 L90.147541,14.3333333 C89.1639344,14.3661202 88.484153,14.1934426 88.1234973,13.8251366 C87.8863388,13.5868852 87.7704918,13.2185792 87.7704918,12.7180328 L87.7704918,7.81202186 L86.6612022,7.81202186 Z" id="Path" fill="#0C7AB7" fill-rule="nonzero"></path>
                </g>
            </g>
        </g>
    </g>
</svg>